<svg xmlns="http://www.w3.org/2000/svg" viewBox="0 0 193.54 116.76">
  <path class="cls-1" d="M150.85,83.27c-3.06-8.06-2.04-21.32-1.54-39.68s-19.99-22.29-27.68-16.85c-10.88,7.7-19.37,7.3-21.92,7.67l.42-.05c-1.25.19-2.5.06-3.75-.13-8.75-1.31-5.54.21-22.37-9.23-8.21-4.6-27.97-3.67-28.89,14.68-.92,18.34-.92,31.64-4.59,39.44s-1.38,43.57,28.89,33.02,25.49-19.24,25.49-19.24c0,0-24.99-17.39-2.06-17.62s2.92,17.66,2.92,17.66c0,0-5.64,8.2,23.72,21.05,29.36,12.85,34.4-22.64,31.35-30.7v-.02ZM63.66,69.71c-3.17,0-5.73-4.59-5.73-10.24s2.57-10.24,5.73-10.24,5.73,4.59,5.73,10.24-2.57,10.24-5.73,10.24ZM129.02,67.35c-3.17,0-5.73-4.59-5.73-10.24s2.57-10.24,5.73-10.24,5.73,4.59,5.73,10.24-2.57,10.24-5.73,10.24Z"/>
  <path class="cls-1" d="M44.17,32.03s-10.4-5.05-29.2,17.72c-18.8,22.78-20.03,42.04-2.9,33.94,17.12-8.1,30.21-27.95,30.21-27.95,0,0,.22-22.33,1.9-23.71h-.01Z"/>
  <path class="cls-1" d="M149.37,32.91s10.4-5.05,29.2,17.72c18.8,22.78,20.03,42.04,2.9,33.94-17.12-8.1-30.21-27.95-30.21-27.95,0,0-.22-22.33-1.9-23.71h.01Z"/>
  <path class="cls-1" d="M97.99,25.9c-1.1.72-2.49-.38-2.02-1.62,4.62-12.29,18.76-35.16,28.91-18.29.83,1.38,1.2,3.02.91,4.6-.41,2.23-2.13,4.84-7.85,5.06-3.71.14-7.35,1.12-10.45,3.15-4.03,2.65-7.66,5.9-9.49,7.1h-.01Z"/>
</svg>